<?xml version="1.0" encoding="UTF-8"?>
<svg id="Layer_1" data-name="Layer 1" xmlns="http://www.w3.org/2000/svg" viewBox="0 0 1564.2822265625 306.0072631838">
  <g>
    <path d="M76.5,305.1072692873H210.6000061035c2.7000274658,0,4.5-.8999938965,6.2999725342-2.7000427246l29.7000274658-35.1000061035H111.6000137329c-2.6999893188,0-4.5,.8999938965-6.3000106812,2.7000427246l-28.8000030518,35.1000061035Z" style="fill: #aaa4ec;"/>
    <path d="M61.1999931335,182.7072906496v44.1000213623c0,1.7999725342-.8999862671,3.6000061035-1.8000068665,4.5L0,306.0072631838H42.3000068665c2.6999931335,0,4.5-.8999938965,6.3000068665-2.700012207l45-55.7999725342c1.8000106812-1.7999725342,3.6000137329-2.7000274658,6.3000106812-2.7000274658h45.9000244141c52.2000274658,0,95.3999938965-40.5,99-91.7999725342h-60.2999725342l59.3999786377-72c.8999938965-1.7999725342,1.7999725342-2.7000274658,1.7999725342-4.5V.0072680886C144-.8927181957,61.1999931335,81.9072570803,61.1999931335,182.7072906496h0Z" style="fill: #5548d9;"/>
  </g>
  <g>
    <path d="M410.009185791,134.0152740481c-2.857421875-3.875-6.5791015625-6.7060546875-11.1689453125-8.4921875-4.5908203125-1.783203125-9.080078125-2.6767578125-13.46484375-2.6767578125-5.6103515625,0-10.7099609375,1.0205078125-15.2998046875,3.0595703125-4.58984375,2.0419921875-8.5439453125,4.845703125-11.857421875,8.4150390625-3.3154296875,3.5712890625-5.8662109375,7.7529296875-7.650390625,12.5458984375-1.78515625,4.7958984375-2.6767578125,9.998046875-2.6767578125,15.6064453125,0,5.9169921875,.865234375,11.3212890625,2.6005859375,16.2177734375,1.7333984375,4.896484375,4.2080078125,9.103515625,7.4208984375,12.6220703125,3.212890625,3.51953125,7.0615234375,6.25,11.55078125,8.185546875,4.4873046875,1.939453125,9.537109375,2.9072265625,15.1474609375,2.9072265625,5.814453125,0,10.9638671875-1.1474609375,15.453125-3.4423828125,4.4873046875-2.294921875,8.109375-5.3291015625,10.86328125-9.103515625l15.453125,10.86328125c-4.7958984375,6.01953125-10.66015625,10.685546875-17.595703125,13.9990234375-6.9375,3.3134765625-15.046875,4.97265625-24.3271484375,4.97265625-8.466796875,0-16.244140625-1.4033203125-23.33203125-4.20703125-7.0908203125-2.8046875-13.1845703125-6.732421875-18.283203125-11.78125-5.1015625-5.048828125-9.080078125-11.06640625-11.9345703125-18.0537109375-2.8564453125-6.9853515625-4.2841796875-14.7119140625-4.2841796875-23.1796875,0-8.6689453125,1.50390625-16.498046875,4.513671875-23.4853515625,3.0078125-6.9853515625,7.138671875-12.9287109375,12.3935546875-17.8251953125,5.251953125-4.8955078125,11.4482421875-8.66796875,18.5888671875-11.3212890625,7.138671875-2.6513671875,14.8916015625-3.978515625,23.255859375-3.978515625,3.466796875,0,7.0888671875,.33203125,10.86328125,.994140625,3.7724609375,.6650390625,7.39453125,1.68359375,10.86328125,3.060546875,3.466796875,1.376953125,6.732421875,3.0859375,9.7919921875,5.125,3.0595703125,2.0419921875,5.6611328125,4.490234375,7.802734375,7.3447265625l-14.6875,11.6279296875Z"/>
    <path d="M430.3597717285,179.9146881106c0-5.8134765625,1.0439453125-11.091796875,3.1357421875-15.8349609375,2.08984375-4.7431640625,4.919921875-8.7978515625,8.4921875-12.1640625,3.5693359375-3.365234375,7.802734375-5.966796875,12.6982421875-7.802734375,4.896484375-1.8359375,10.0986328125-2.75390625,15.6064453125-2.75390625s10.7099609375,.91796875,15.6064453125,2.75390625c4.8955078125,1.8359375,9.126953125,4.4375,12.6982421875,7.802734375,3.5693359375,3.3662109375,6.400390625,7.4208984375,8.4921875,12.1640625,2.0888671875,4.7431640625,3.1357421875,10.021484375,3.1357421875,15.8349609375,0,5.814453125-1.046875,11.119140625-3.1357421875,15.912109375-2.091796875,4.7958984375-4.9228515625,8.900390625-8.4921875,12.31640625-3.5712890625,3.4189453125-7.802734375,6.0966796875-12.6982421875,8.033203125-4.896484375,1.9365234375-10.0986328125,2.90625-15.6064453125,2.90625s-10.7099609375-.9697265625-15.6064453125-2.90625c-4.8955078125-1.9365234375-9.12890625-4.6142578125-12.6982421875-8.033203125-3.572265625-3.416015625-6.40234375-7.5205078125-8.4921875-12.31640625-2.091796875-4.79296875-3.1357421875-10.09765625-3.1357421875-15.912109375Zm18.666015625,0c0,2.857421875,.4326171875,5.7138671875,1.2998046875,8.568359375,.865234375,2.8564453125,2.166015625,5.4072265625,3.9013671875,7.650390625,1.7333984375,2.244140625,3.92578125,4.080078125,6.5791015625,5.5078125,2.6513671875,1.4296875,5.814453125,2.1416015625,9.486328125,2.1416015625s6.83203125-.7119140625,9.486328125-2.1416015625c2.650390625-1.427734375,4.8427734375-3.263671875,6.5791015625-5.5078125,1.732421875-2.2431640625,3.033203125-4.7939453125,3.9013671875-7.650390625,.865234375-2.8544921875,1.2998046875-5.7109375,1.2998046875-8.568359375,0-2.8544921875-.4345703125-5.6845703125-1.2998046875-8.4912109375-.8681640625-2.8037109375-2.1689453125-5.3291015625-3.9013671875-7.5732421875-1.736328125-2.2421875-3.9287109375-4.0546875-6.5791015625-5.431640625-2.654296875-1.376953125-5.814453125-2.0654296875-9.486328125-2.0654296875s-6.8349609375,.6884765625-9.486328125,2.0654296875c-2.6533203125,1.376953125-4.845703125,3.189453125-6.5791015625,5.431640625-1.7353515625,2.244140625-3.0361328125,4.76953125-3.9013671875,7.5732421875-.8671875,2.806640625-1.2998046875,5.63671875-1.2998046875,8.4912109375Z"/>
    <path d="M527.0531005859,143.5006256106h17.4423828125v11.78125h.3056640625c1.630859375-3.671875,4.4609375-6.9091796875,8.4921875-9.71484375,4.0283203125-2.8046875,8.796875-4.2080078125,14.3046875-4.2080078125,4.7939453125,0,8.8984375,.841796875,12.3173828125,2.5244140625,3.416015625,1.68359375,6.2197265625,3.9013671875,8.4150390625,6.6552734375,2.19140625,2.75390625,3.7978515625,5.9169921875,4.8193359375,9.486328125,1.0185546875,3.5712890625,1.529296875,7.2431640625,1.529296875,11.015625v45.900390625h-18.359375v-40.6982421875c0-2.1416015625-.1533203125-4.3837890625-.458984375-6.7314453125-.306640625-2.345703125-.970703125-4.4609375-1.9892578125-6.349609375-1.0205078125-1.88671875-2.423828125-3.4423828125-4.20703125-4.6669921875-1.7861328125-1.2236328125-4.158203125-1.8359375-7.115234375-1.8359375-2.958984375,0-5.5078125,.587890625-7.6494140625,1.759765625-2.142578125,1.173828125-3.9013671875,2.677734375-5.2783203125,4.513671875-1.3779296875,1.8359375-2.4248046875,3.9541015625-3.13671875,6.349609375-.71484375,2.3974609375-1.0712890625,4.8193359375-1.0712890625,7.267578125v40.3916015625h-18.3603515625v-73.4404296875Z"/>
    <path d="M604.6224365234,158.1891021731v-14.6884765625h12.8515625v-21.2666015625h18.0546875v21.2666015625h18.359375v14.6884765625h-18.359375v34.119140625c0,3.265625,.5859375,5.966796875,1.7587890625,8.1083984375,1.171875,2.142578125,3.798828125,3.2138671875,7.8798828125,3.2138671875,1.2236328125,0,2.548828125-.126953125,3.978515625-.3828125,1.4267578125-.25390625,2.701171875-.6357421875,3.82421875-1.1474609375l.6123046875,14.3818359375c-1.6328125,.6123046875-3.5712890625,1.0947265625-5.8134765625,1.453125-2.2451171875,.3564453125-4.3876953125,.5361328125-6.4267578125,.5361328125-4.8955078125,0-8.8740234375-.6884765625-11.93359375-2.0654296875-3.060546875-1.376953125-5.484375-3.263671875-7.267578125-5.6611328125-1.7861328125-2.3955078125-3.009765625-5.1494140625-3.671875-8.2626953125-.6650390625-3.109375-.9951171875-6.44921875-.9951171875-10.021484375v-34.271484375h-12.8515625Z"/>
    <path d="M736.3548583984,181.1392974856v2.4482421875c0,.8173828125-.052734375,1.6318359375-.1533203125,2.447265625h-55.8447265625c.203125,2.654296875,.8916015625,5.0751953125,2.0654296875,7.267578125,1.171875,2.1943359375,2.7275390625,4.0810546875,4.6669921875,5.6611328125,1.9365234375,1.5830078125,4.130859375,2.830078125,6.5791015625,3.7490234375,2.447265625,.91796875,4.99609375,1.376953125,7.6494140625,1.376953125,4.58984375,0,8.4658203125-.841796875,11.6279296875-2.525390625,3.1611328125-1.6826171875,5.76171875-4.0009765625,7.8037109375-6.9609375l12.2392578125,9.7919921875c-7.2431640625,9.7919921875-17.748046875,14.6875-31.517578125,14.6875-5.7138671875,0-10.9658203125-.8935546875-15.7587890625-2.6767578125-4.7958984375-1.7841796875-8.951171875-4.30859375-12.4697265625-7.57421875-3.5185546875-3.2626953125-6.2734375-7.267578125-8.26171875-12.009765625-1.9892578125-4.7431640625-2.9833984375-10.1220703125-2.9833984375-16.1416015625,0-5.9150390625,.994140625-11.2958984375,2.9833984375-16.1416015625,1.98828125-4.84375,4.716796875-8.974609375,8.185546875-12.3935546875,3.4658203125-3.416015625,7.5732421875-6.0673828125,12.31640625-7.9560546875,4.7431640625-1.8857421875,9.8681640625-2.830078125,15.3759765625-2.830078125,5.099609375,0,9.81640625,.841796875,14.15234375,2.5244140625,4.3349609375,1.68359375,8.0830078125,4.18359375,11.24609375,7.4970703125,3.16015625,3.3154296875,5.634765625,7.447265625,7.419921875,12.392578125,1.7841796875,4.94921875,2.677734375,10.736328125,2.677734375,17.3662109375Zm-18.359375-8.2626953125c0-2.3447265625-.3330078125-4.58984375-.9951171875-6.7314453125-.6640625-2.142578125-1.708984375-4.0283203125-3.13671875-5.6611328125-1.4296875-1.630859375-3.2392578125-2.9306640625-5.4306640625-3.9013671875-2.1953125-.96875-4.76953125-1.453125-7.7265625-1.453125-5.5087890625,0-10.1748046875,1.658203125-14,4.9716796875-3.8251953125,3.31640625-5.943359375,7.57421875-6.349609375,12.775390625h37.638671875Z"/>
    <path d="M753.1829833984,143.5006256106h17.4423828125v11.78125h.3056640625c1.630859375-3.671875,4.4609375-6.9091796875,8.4921875-9.71484375,4.0283203125-2.8046875,8.796875-4.2080078125,14.3046875-4.2080078125,4.7939453125,0,8.8984375,.841796875,12.3173828125,2.5244140625,3.416015625,1.68359375,6.2197265625,3.9013671875,8.4150390625,6.6552734375,2.19140625,2.75390625,3.7978515625,5.9169921875,4.8193359375,9.486328125,1.0185546875,3.5712890625,1.529296875,7.2431640625,1.529296875,11.015625v45.900390625h-18.359375v-40.6982421875c0-2.1416015625-.1533203125-4.3837890625-.458984375-6.7314453125-.306640625-2.345703125-.970703125-4.4609375-1.9892578125-6.349609375-1.0205078125-1.88671875-2.423828125-3.4423828125-4.20703125-4.6669921875-1.7861328125-1.2236328125-4.158203125-1.8359375-7.115234375-1.8359375-2.958984375,0-5.5078125,.587890625-7.6494140625,1.759765625-2.142578125,1.173828125-3.9013671875,2.677734375-5.2783203125,4.513671875-1.3779296875,1.8359375-2.4248046875,3.9541015625-3.13671875,6.349609375-.71484375,2.3974609375-1.0712890625,4.8193359375-1.0712890625,7.267578125v40.3916015625h-18.3603515625v-73.4404296875Z"/>
    <path d="M830.7523193359,158.1891021731v-14.6884765625h12.8515625v-21.2666015625h18.0546875v21.2666015625h18.359375v14.6884765625h-18.359375v34.119140625c0,3.265625,.5859375,5.966796875,1.7587890625,8.1083984375,1.171875,2.142578125,3.798828125,3.2138671875,7.8798828125,3.2138671875,1.2236328125,0,2.548828125-.126953125,3.978515625-.3828125,1.4267578125-.25390625,2.701171875-.6357421875,3.82421875-1.1474609375l.6123046875,14.3818359375c-1.6328125,.6123046875-3.5712890625,1.0947265625-5.8134765625,1.453125-2.2451171875,.3564453125-4.3876953125,.5361328125-6.4267578125,.5361328125-4.8955078125,0-8.8740234375-.6884765625-11.93359375-2.0654296875-3.060546875-1.376953125-5.484375-3.263671875-7.267578125-5.6611328125-1.7861328125-2.3955078125-3.009765625-5.1494140625-3.671875-8.2626953125-.6650390625-3.109375-.9951171875-6.44921875-.9951171875-10.021484375v-34.271484375h-12.8515625Z"/>
    <path d="M930.6605224609,108.6168441775h19.2783203125v43.7578201294h50.6435546875v-43.7578125h19.27734375v108.32421875h-19.27734375v-48.0419921875h-50.6435546875v48.0419921875h-19.2783203125V108.6168441775Z"/>
    <path d="M1108.9056396484,216.9410552981h-17.4423828125v-11.78125h-.3056640625c-1.6328125,3.671875-4.4638671875,6.9111328125-8.4921875,9.7158203125-4.0302734375,2.8037109375-8.796875,4.20703125-14.3046875,4.20703125-4.7958984375,0-8.900390625-.8408203125-12.31640625-2.5244140625-3.4189453125-1.6826171875-6.2236328125-3.9013671875-8.4150390625-6.6552734375-2.1953125-2.75390625-3.8017578125-5.9140625-4.8203125-9.486328125-1.0205078125-3.568359375-1.529296875-7.2412109375-1.529296875-11.015625v-45.900390625h18.359375v40.6982421875c0,2.142578125,.1533203125,4.38671875,.458984375,6.732421875,.306640625,2.34765625,.96875,4.462890625,1.9892578125,6.349609375,1.0185546875,1.888671875,2.421875,3.4423828125,4.2080078125,4.666015625,1.783203125,1.224609375,4.154296875,1.8359375,7.1142578125,1.8359375,2.8544921875,0,5.37890625-.5859375,7.5732421875-1.759765625,2.1923828125-1.1708984375,3.978515625-2.6767578125,5.35546875-4.5126953125s2.4208984375-3.9521484375,3.1357421875-6.349609375c.712890625-2.3955078125,1.0712890625-4.8193359375,1.0712890625-7.267578125v-40.392578125h18.3603515625v73.4404296875Z"/>
    <path d="M1148.6829833984,101.2730941775v51.5605545044h.458984375c.91796875-1.2236328125,2.08984375-2.498046875,3.51953125-3.82421875,1.4267578125-1.3251953125,3.13671875-2.548828125,5.125-3.671875,1.9892578125-1.1220703125,4.30859375-2.06640625,6.9619140625-2.8310546875,2.6513671875-.7646484375,5.6611328125-1.1474609375,9.02734375-1.1474609375,5.201171875,0,9.9951171875,.994140625,14.3818359375,2.9833984375,4.3837890625,1.9892578125,8.1591796875,4.71875,11.3212890625,8.185546875,3.1611328125,3.46875,5.6083984375,7.5498046875,7.3447265625,12.240234375,1.7333984375,4.6923828125,2.6005859375,9.7412109375,2.6005859375,15.146484375,0,5.408203125-.841796875,10.48046875-2.5244140625,15.2236328125s-4.0810546875,8.8740234375-7.19140625,12.3935546875c-3.1123046875,3.5185546875-6.884765625,6.3251953125-11.3212890625,8.4150390625-4.4375,2.0888671875-9.4619140625,3.1357421875-15.0703125,3.1357421875-5.2021484375,0-10.07421875-1.123046875-14.6123046875-3.365234375-4.5390625-2.2431640625-8.0849609375-5.5087890625-10.6328125-9.7919921875h-.306640625v11.015625h-17.44140625V101.2730941775h18.359375Zm42.0751953125,78.6416091919c0-2.8544921875-.4345703125-5.6845703125-1.30078125-8.4912109375-.8671875-2.8037109375-2.16796875-5.3291015625-3.9013671875-7.5732421875-1.7353515625-2.2421875-3.927734375-4.0546875-6.5791015625-5.431640625-2.6533203125-1.376953125-5.763671875-2.0654296875-9.3330078125-2.0654296875-3.365234375,0-6.375,.71484375-9.0263671875,2.1416015625-2.6533203125,1.4296875-4.9228515625,3.265625-6.80859375,5.5078125-1.888671875,2.2451171875-3.3154296875,4.7958984375-4.2841796875,7.650390625-.970703125,2.8564453125-1.453125,5.7138671875-1.453125,8.568359375,0,2.8564453125,.482421875,5.6875,1.453125,8.4912109375,.96875,2.806640625,2.3955078125,5.3310546875,4.2841796875,7.5732421875,1.8857421875,2.2451171875,4.1552734375,4.0546875,6.80859375,5.431640625,2.6513671875,1.376953125,5.6611328125,2.0654296875,9.0263671875,2.0654296875,3.5693359375,0,6.6796875-.7119140625,9.3330078125-2.1416015625,2.6513671875-1.427734375,4.84375-3.263671875,6.5791015625-5.5078125,1.7333984375-2.2431640625,3.0341796875-4.7939453125,3.9013671875-7.650390625,.8662109375-2.8544921875,1.30078125-5.7109375,1.30078125-8.568359375Z"/>
  </g>
  <g>
    <path d="M1244.783203125,163.7910156252c0-8.498046875,1.4248046875-16.1743164062,4.2744140625-23.0249023438,2.8505859375-6.8486328125,6.7998046875-12.6752929688,11.8505859375-17.4750976562,5.0478515625-4.8002929688,11.0478515625-8.4985351562,18-11.1000976562,6.94921875-2.5991210938,14.5234375-3.8999023438,22.724609375-3.8999023438,8.298828125,0,15.94921875,1.30078125,22.9501953125,3.8999023438,6.998046875,2.6015625,13.0498046875,6.2998046875,18.1494140625,11.1000976562,5.1005859375,4.7998046875,9.0751953125,10.6264648438,11.92578125,17.4750976562,2.849609375,6.8505859375,4.2744140625,14.5268554688,4.2744140625,23.0249023438,0,8.3017578125-1.4248046875,15.876953125-4.2744140625,22.7255859375-2.8505859375,6.8505859375-6.8251953125,12.75-11.92578125,17.69921875-5.099609375,4.9501953125-11.1513671875,8.80078125-18.1494140625,11.55078125-7.0009765625,2.7490234375-14.6513671875,4.125-22.9501953125,4.125-8.201171875,0-15.775390625-1.3759765625-22.724609375-4.125-6.9521484375-2.75-12.9521484375-6.6005859375-18-11.55078125-5.05078125-4.94921875-9-10.8486328125-11.8505859375-17.69921875-2.849609375-6.8486328125-4.2744140625-14.423828125-4.2744140625-22.7255859375Zm20.5498046875,0c0,5.7001953125,.8740234375,10.9267578125,2.625,15.6748046875,1.748046875,4.7509765625,4.2490234375,8.8759765625,7.5,12.375,3.248046875,3.501953125,7.0986328125,6.2255859375,11.5498046875,8.17578125,4.4482421875,1.94921875,9.375,2.9248046875,14.775390625,2.9248046875,5.3994140625,0,10.349609375-.9755859375,14.849609375-2.9248046875,4.5-1.9501953125,8.3740234375-4.673828125,11.625-8.17578125,3.248046875-3.4990234375,5.7490234375-7.6240234375,7.5-12.375,1.748046875-4.748046875,2.625-9.974609375,2.625-15.6748046875,0-5.498046875-.876953125-10.5986328125-2.625-15.3002929688-1.7509765625-4.69921875-4.2255859375-8.7983398438-7.4248046875-12.2998046875-3.2021484375-3.4990234375-7.0498046875-6.2485351562-11.5498046875-8.25-4.5-1.9990234375-9.501953125-3-15-3-5.5009765625,0-10.4765625,1.0009765625-14.92578125,3-4.4501953125,2.0014648438-8.275390625,4.7509765625-11.474609375,8.25-3.201171875,3.5014648438-5.6767578125,7.6005859375-7.4248046875,12.2998046875-1.7509765625,4.7016601562-2.625,9.8022460938-2.625,15.3002929688Z"/>
    <path d="M1374.232421875,110.9907226565h25.0498046875l49.349609375,79.5004882812h.30078125V110.9907226565h18.8994140625v106.2006835938h-24l-50.3994140625-82.0502929688h-.2998046875v82.0502929688h-18.900390625V110.9907226565Z"/>
    <path d="M1491.232421875,110.9907226565h70.349609375v16.5h-51.4501953125v27.0004882812h48.75v15.900390625h-48.75v30h54.150390625v16.7998046875h-73.0498046875V110.9907226565Z"/>
  </g>
</svg>