<svg xmlns="http://www.w3.org/2000/svg" width="1320" height="270.118" viewBox="0 0 1320 270.118">
  <g id="Group_203" data-name="Group 203" transform="translate(-300 -3518.4)">
    <g id="Group_195" data-name="Group 195" transform="translate(543.146 3643.167)">
      <ellipse id="Ellipse_329" data-name="Ellipse 329" cx="21.006" cy="6.594" rx="21.006" ry="6.594" transform="translate(40.678 91.803) rotate(-165.518)" fill="#2f2e41"/>
      <ellipse id="Ellipse_330" data-name="Ellipse 330" cx="21.006" cy="6.594" rx="21.006" ry="6.594" transform="matrix(-0.384, -0.923, 0.923, -0.384, 111.96, 106.093)" fill="#2f2e41"/>
      <ellipse id="Ellipse_331" data-name="Ellipse 331" cx="42.012" cy="42.012" rx="42.012" ry="42.012" transform="translate(22.093 32.218)" fill="#2f2e41"/>
      <path id="Path_444" data-name="Path 444" d="M739.963,457.55l12.763.059c9.343-9.2,7.96-16.58.106-22.867l-12.763-.059C745.953,441.928,747.522,449.448,739.963,457.55Z" transform="translate(-669.735 -327.453)" fill="#2f2e41"/>
      <ellipse id="Ellipse_332" data-name="Ellipse 332" cx="10.636" cy="3.988" rx="10.636" ry="3.988" transform="matrix(-0.864, -0.504, 0.504, -0.864, 86.435, 141.337)" fill="#2f2e41"/>
      <path id="Path_445" data-name="Path 445" d="M762.963,457.55l12.763.059c9.343-9.2,7.96-16.58.106-22.867l-12.763-.059C768.953,441.928,770.522,449.448,762.963,457.55Z" transform="translate(-715.735 -327.453)" fill="#2f2e41"/>
      <ellipse id="Ellipse_333" data-name="Ellipse 333" cx="10.636" cy="3.988" rx="10.636" ry="3.988" transform="matrix(-0.864, -0.504, 0.504, -0.864, 63.435, 141.337)" fill="#2f2e41"/>
      <ellipse id="Ellipse_334" data-name="Ellipse 334" cx="14.359" cy="14.359" rx="14.359" ry="14.359" transform="translate(50.861 49.241)" fill="#fff"/>
      <ellipse id="Ellipse_335" data-name="Ellipse 335" cx="4.786" cy="4.786" rx="4.786" ry="4.786" transform="translate(66.497 55.45)" fill="#3f3d56"/>
      <path id="Path_446" data-name="Path 446" d="M745.152,362.423c-3.322-15.208,7.593-30.508,24.38-34.175s33.087,5.69,36.408,20.9-7.818,20.759-24.6,24.426S748.474,377.631,745.152,362.423Z" transform="translate(-721.618 -327.453)" fill="#534dd1"/>
      <path id="Path_447" data-name="Path 447" d="M754.7,419.99a9.572,9.572,0,1,0,19.144.138v-.049c.025-5.287-4.256-6.4-9.543-6.426S754.728,414.7,754.7,419.99Z" transform="translate(-699.088 -327.453)" fill="#fff"/>
    </g>
    <g id="undraw_add_notes_re_ln36" transform="translate(1318.399 3518.4)">
      <path id="Path_448" data-name="Path 448" d="M632.833,276.434h-40.7a5.858,5.858,0,0,1-4.627-2.242h0A5.931,5.931,0,0,1,586.4,269.1a102.911,102.911,0,0,0,0-47.8,5.933,5.933,0,0,1,1.111-5.087,5.858,5.858,0,0,1,4.627-2.242h40.7a5.933,5.933,0,0,1,5.838,4.979,172.5,172.5,0,0,1,0,52.5,5.933,5.933,0,0,1-5.838,4.979Z" transform="translate(-528.639 -211.054)" fill="#e6e6e6"/>
      <path id="Path_449" data-name="Path 449" d="M595.072,219.978a2.814,2.814,0,0,0-2.223,1.076,2.889,2.889,0,0,0-.538,2.477,105.986,105.986,0,0,1,0,49.225,2.887,2.887,0,0,0,.537,2.477h0a2.813,2.813,0,0,0,2.222,1.076h40.7a2.849,2.849,0,0,0,2.812-2.382,169.443,169.443,0,0,0,0-51.568,2.849,2.849,0,0,0-2.812-2.382Z" transform="translate(-531.578 -213.992)" fill="#fff"/>
      <path id="Path_450" data-name="Path 450" d="M636.716,241.806H615.359a3.066,3.066,0,0,1-3.062-3.062v-1.2a3.066,3.066,0,0,1,3.062-3.062h21.357a3.066,3.066,0,0,1,3.062,3.062v1.2a3.066,3.066,0,0,1-3.062,3.062Z" transform="translate(-541.403 -221.095)" fill="#e6e6e6"/>
      <path id="Path_451" data-name="Path 451" d="M636.716,271.431H615.359a3.066,3.066,0,0,1-3.062-3.062v-1.2a3.066,3.066,0,0,1,3.062-3.062h21.357a3.066,3.066,0,0,1,3.062,3.062v1.2A3.066,3.066,0,0,1,636.716,271.431Z" transform="translate(-541.403 -235.599)" fill="#e6e6e6"/>
      <path id="Path_452" data-name="Path 452" d="M636.716,301.057H615.359a3.066,3.066,0,0,1-3.062-3.062v-1.2a3.066,3.066,0,0,1,3.062-3.062h21.357a3.066,3.066,0,0,1,3.062,3.062v1.2A3.066,3.066,0,0,1,636.716,301.057Z" transform="translate(-541.403 -250.104)" fill="#e6e6e6"/>
      <path id="Path_453" data-name="Path 453" d="M782.833,352.434h-40.7a5.858,5.858,0,0,1-4.627-2.242h0A5.931,5.931,0,0,1,736.4,345.1a102.911,102.911,0,0,0,0-47.8,5.933,5.933,0,0,1,1.111-5.087,5.858,5.858,0,0,1,4.627-2.242h40.7a5.933,5.933,0,0,1,5.838,4.979,172.493,172.493,0,0,1,0,52.5,5.932,5.932,0,0,1-5.838,4.979Z" transform="translate(-602.08 -248.264)" fill="#e6e6e6"/>
      <path id="Path_454" data-name="Path 454" d="M745.072,295.978a2.814,2.814,0,0,0-2.222,1.076,2.888,2.888,0,0,0-.538,2.477,105.986,105.986,0,0,1,0,49.225,2.887,2.887,0,0,0,.537,2.477h0a2.813,2.813,0,0,0,2.222,1.076h40.7a2.849,2.849,0,0,0,2.812-2.382,169.441,169.441,0,0,0,0-51.568,2.849,2.849,0,0,0-2.812-2.382Z" transform="translate(-605.019 -251.202)" fill="#fff"/>
      <path id="Path_455" data-name="Path 455" d="M623.588,438.445h-40.7a6.112,6.112,0,0,1-4.827-2.34A6.185,6.185,0,0,1,576.9,430.8a102.656,102.656,0,0,0,0-47.678,6.186,6.186,0,0,1,1.159-5.3,6.112,6.112,0,0,1,4.828-2.34h40.7a6.189,6.189,0,0,1,6.091,5.2,172.749,172.749,0,0,1,0,52.576A6.189,6.189,0,0,1,623.588,438.445Z" transform="translate(-523.987 -290.126)" fill="#f2f2f2"/>
      <path id="Path_456" data-name="Path 456" d="M786.716,332.806H765.358a3.066,3.066,0,0,1-3.062-3.062v-1.2a3.066,3.066,0,0,1,3.062-3.062h21.357a3.066,3.066,0,0,1,3.062,3.062v1.2A3.065,3.065,0,0,1,786.716,332.806Z" transform="translate(-614.844 -265.649)" fill="#e6e6e6"/>
      <path id="Path_457" data-name="Path 457" d="M786.716,362.431H765.358a3.066,3.066,0,0,1-3.062-3.062v-1.2a3.066,3.066,0,0,1,3.062-3.062h21.357a3.066,3.066,0,0,1,3.062,3.062v1.2A3.066,3.066,0,0,1,786.716,362.431Z" transform="translate(-614.844 -280.154)" fill="#e6e6e6"/>
      <ellipse id="Ellipse_336" data-name="Ellipse 336" cx="11.739" cy="11.739" rx="11.739" ry="11.739" transform="translate(67.626 104.886)" fill="#fff"/>
      <path id="Path_458" data-name="Path 458" d="M627.654,428.364h-4.083v-4.083a1.531,1.531,0,1,0-3.062,0v4.083h-4.083a1.531,1.531,0,1,0,0,3.062h4.083v4.083a1.531,1.531,0,0,0,3.062,0v-4.083h4.083a1.531,1.531,0,1,0,0-3.062Z" transform="translate(-542.675 -313.27)" fill="#e6e6e6"/>
      <path id="Path_459" data-name="Path 459" d="M635.127,216.927H613.691a2.3,2.3,0,0,1-2.3-2.3v-4.083a2.3,2.3,0,0,1,2.3-2.3h21.437a2.3,2.3,0,0,1,2.3,2.3v4.083a2.3,2.3,0,0,1-2.3,2.3Z" transform="translate(-540.961 -208.25)" fill="#ccc"/>
      <path id="Path_460" data-name="Path 460" d="M787.127,293.927H765.691a2.3,2.3,0,0,1-2.3-2.3v-4.083a2.3,2.3,0,0,1,2.3-2.3h21.437a2.3,2.3,0,0,1,2.3,2.3v4.083a2.3,2.3,0,0,1-2.3,2.3Z" transform="translate(-615.381 -245.95)" fill="#ccc"/>
      <path id="Path_473" data-name="Path 473" d="M514.618,493.489l-37.584-15.615a5.859,5.859,0,0,1-3.413-3.846h0a5.932,5.932,0,0,1,.926-5.124,102.913,102.913,0,0,0,18.339-44.139,5.933,5.933,0,0,1,2.978-4.272,5.858,5.858,0,0,1,5.133-.3l37.585,15.616a5.933,5.933,0,0,1,3.481,6.838,172.494,172.494,0,0,1-20.143,48.48,5.932,5.932,0,0,1-7.3,2.358Z" transform="translate(-473.397 -311.797)" fill="#e6e6e6"/>
      <path id="Path_474" data-name="Path 474" d="M502.762,425.964a2.814,2.814,0,0,0-2.465.141,2.889,2.889,0,0,0-1.447,2.081,105.986,105.986,0,0,1-18.887,45.458,2.887,2.887,0,0,0-.454,2.493h0a2.813,2.813,0,0,0,1.639,1.847L518.733,493.6a2.849,2.849,0,0,0,3.51-1.121,169.447,169.447,0,0,0,19.786-47.621,2.849,2.849,0,0,0-1.682-3.278Z" transform="translate(-476.336 -314.737)" fill="#fff"/>
      <path id="Path_475" data-name="Path 475" d="M543.65,479.71l-19.723-8.195a3.066,3.066,0,0,1-1.653-4l.459-1.105a3.066,3.066,0,0,1,4-1.653l19.723,8.195a3.066,3.066,0,0,1,1.653,4l-.459,1.105a3.066,3.066,0,0,1-4,1.653Z" transform="translate(-497.213 -333.721)" fill="#6c63ff"/>
      <path id="Path_476" data-name="Path 476" d="M532.283,507.069l-19.723-8.195a3.066,3.066,0,0,1-1.653-4l.459-1.105a3.066,3.066,0,0,1,4-1.653l19.723,8.195a3.066,3.066,0,0,1,1.653,4l-.459,1.105A3.066,3.066,0,0,1,532.283,507.069Z" transform="translate(-491.648 -347.117)" fill="#6c63ff"/>
      <path id="Path_477" data-name="Path 477" d="M558.6,440.085a2.29,2.29,0,0,1-.861-.169l-19.874-8.035a2.3,2.3,0,0,1-1.269-2.99l1.531-3.786a2.3,2.3,0,0,1,2.99-1.268l19.874,8.035a2.3,2.3,0,0,1,1.268,2.99l-1.531,3.786A2.3,2.3,0,0,1,558.6,440.085Z" transform="translate(-504.256 -313.72)" fill="#ccc"/>
    </g>
    <rect id="Rectangle_160" data-name="Rectangle 160" width="1320" height="3" transform="translate(300 3781.519)" fill="#e4e4e4"/>
    <g id="Group_196" data-name="Group 196" transform="translate(413 3679.375)">
      <circle id="Ellipse_337" data-name="Ellipse 337" cx="34.064" cy="34.064" r="34.064" transform="translate(54.765 109.143) rotate(-135)" fill="#2f2e41"/>
      <ellipse id="Ellipse_338" data-name="Ellipse 338" cx="11.642" cy="11.642" rx="11.642" ry="11.642" transform="matrix(-0.976, -0.216, 0.216, -0.976, 66.323, 66.621)" fill="#fff"/>
      <ellipse id="Ellipse_339" data-name="Ellipse 339" cx="3.881" cy="3.881" rx="3.881" ry="3.881" transform="matrix(-0.976, -0.216, 0.216, -0.976, 65.138, 54.36)" fill="#3f3d56"/>
      <path id="Path_480" data-name="Path 480" d="M761.461,522.631c13.931-.026,23.711-2.514,23.687-15.135s-11.336-22.832-25.267-22.806-25.205,10.278-25.182,22.9S747.529,522.657,761.461,522.631Z" transform="translate(-705.346 -484.69)" fill="#534dd1"/>
      <path id="Path_481" data-name="Path 481" d="M758.133,554.172c4,13.862,15.663,23.566,27.834,31.809q2.549,1.727,5.1,3.374c.012.005.023.016.035.021.082.053.164.105.24.158l1.05.676-.191.086s-.188.1.018.016c.061-.026.125-.049.186-.074,7.07-2.852,14.266-5.913,19.685-11.255,5.621-5.547,8.906-14.248,5.862-21.536a13.914,13.914,0,0,0-1.507-2.7c-.247-.353-.513-.691-.79-1.023a14.914,14.914,0,0,0-25.615,4.532c-.894-8.325,5.971-15.3,12.577-20.444s14.119-10.744,15.4-19.023a16.136,16.136,0,0,0-3.806-12.654c-.09-.109-.181-.218-.274-.323a21.766,21.766,0,0,0-13.99-7.505c-10.135-1.053-19.979,4.311-27.341,11.357C760.754,521,753.59,538.411,758.133,554.172Z" transform="translate(-756.754 -487.508)" fill="#e6e6e6"/>
      <path id="Path_482" data-name="Path 482" d="M765.687,538.048a37,37,0,0,0-4.433,9.777,32.127,32.127,0,0,0-1.11,9.489,41.163,41.163,0,0,0,5.391,18.733,59.244,59.244,0,0,0,8.937,11.943q2.549,1.727,5.1,3.374c.012.005.023.016.035.021.082.053.164.105.24.158l1.05.676s-.379.186-.174.1c.061-.026.125-.049.186-.074a32.459,32.459,0,0,1,24.04-35.5c-.247-.353-.513-.691-.79-1.023a34.238,34.238,0,0,0-5.653,2.139,33.555,33.555,0,0,0-15.172,14.627A34.306,34.306,0,0,0,779.6,591.32c-.291-.263-.581-.532-.863-.8a60.153,60.153,0,0,1-13.374-17.394,38.294,38.294,0,0,1-4.01-18.119c.264-6.844,2.991-13.184,6.939-18.7a80.159,80.159,0,0,1,15.194-15.659,91.084,91.084,0,0,1,18.9-11.667.655.655,0,0,0,.33-.84.557.557,0,0,0-.274-.323.485.485,0,0,0-.421.018c-.834.384-1.661.773-2.483,1.179A92.117,92.117,0,0,0,780.5,521.567,74.146,74.146,0,0,0,765.687,538.048Z" transform="translate(-745.259 -489.516)" fill="#fff"/>
      <ellipse id="Ellipse_340" data-name="Ellipse 340" cx="17.032" cy="5.347" rx="17.032" ry="5.347" transform="matrix(-1, -0.02, 0.02, -1, 78.821, 82.672)" fill="#2f2e41"/>
    </g>
    <g id="Group_199" data-name="Group 199" transform="translate(-46.258 63.033)">
      <path id="Path_483" data-name="Path 483" d="M746.661,431h-26a5.006,5.006,0,0,1-5-5V400a5.006,5.006,0,0,1,5-5h26a5.006,5.006,0,0,1,5,5v26a5.006,5.006,0,0,1-5,5Zm-26-34a3,3,0,0,0-3,3v26a3,3,0,0,0,3,3h26a3,3,0,0,0,3-3V400a3,3,0,0,0-3-3Z" transform="translate(361.597 3198.104)" fill="#f2f2f2"/>
      <path id="Path_484" data-name="Path 484" d="M758.661,414h-26a5.006,5.006,0,0,1-5-5V383a5.006,5.006,0,0,1,5-5h26a5.006,5.006,0,0,1,5,5v26a5.006,5.006,0,0,1-5,5Zm-26-34a3,3,0,0,0-3,3v26a3,3,0,0,0,3,3h26a3,3,0,0,0,3-3V383a3,3,0,0,0-3-3Z" transform="translate(361.597 3198.104)" fill="#f2f2f2"/>
    </g>
    <g id="Group_200" data-name="Group 200" transform="translate(-12 58.736)">
      <path id="Path_485" data-name="Path 485" d="M553.661,331h-26a5.006,5.006,0,0,1-5-5V300a5.006,5.006,0,0,1,5-5h26a5.006,5.006,0,0,1,5,5v26a5.006,5.006,0,0,1-5,5Zm-26-34a3,3,0,0,0-3,3v26a3,3,0,0,0,3,3h26a3,3,0,0,0,3-3V300a3,3,0,0,0-3-3Z" transform="translate(728.655 3249.4)" fill="#f2f2f2"/>
      <path id="Path_486" data-name="Path 486" d="M537.661,318h-26a5.006,5.006,0,0,1-5-5V287a5.006,5.006,0,0,1,5-5h26a5.006,5.006,0,0,1,5,5v26a5.006,5.006,0,0,1-5,5Zm-26-34a3,3,0,0,0-3,3v26a3,3,0,0,0,3,3h26a3,3,0,0,0,3-3V287a3,3,0,0,0-3-3Z" transform="translate(728.655 3249.4)" fill="#f2f2f2"/>
    </g>
    <g id="Group_202" data-name="Group 202" transform="translate(-446.316 172.203)">
      <path id="Path_485-2" data-name="Path 485" d="M553.661,331h-26a5.006,5.006,0,0,1-5-5V300a5.006,5.006,0,0,1,5-5h26a5.006,5.006,0,0,1,5,5v26a5.006,5.006,0,0,1-5,5Zm-26-34a3,3,0,0,0-3,3v26a3,3,0,0,0,3,3h26a3,3,0,0,0,3-3V300a3,3,0,0,0-3-3Z" transform="translate(728.655 3249.4)" fill="#f2f2f2"/>
      <path id="Path_486-2" data-name="Path 486" d="M537.661,318h-26a5.006,5.006,0,0,1-5-5V287a5.006,5.006,0,0,1,5-5h26a5.006,5.006,0,0,1,5,5v26a5.006,5.006,0,0,1-5,5Zm-26-34a3,3,0,0,0-3,3v26a3,3,0,0,0,3,3h26a3,3,0,0,0,3-3V287a3,3,0,0,0-3-3Z" transform="translate(728.655 3249.4)" fill="#f2f2f2"/>
    </g>
    <g id="Group_201" data-name="Group 201" transform="translate(-763.316 75.6)">
      <path id="Path_485-3" data-name="Path 485" d="M553.661,331h-26a5.006,5.006,0,0,1-5-5V300a5.006,5.006,0,0,1,5-5h26a5.006,5.006,0,0,1,5,5v26a5.006,5.006,0,0,1-5,5Zm-26-34a3,3,0,0,0-3,3v26a3,3,0,0,0,3,3h26a3,3,0,0,0,3-3V300a3,3,0,0,0-3-3Z" transform="translate(728.655 3249.4)" fill="#f2f2f2"/>
      <path id="Path_486-3" data-name="Path 486" d="M537.661,318h-26a5.006,5.006,0,0,1-5-5V287a5.006,5.006,0,0,1,5-5h26a5.006,5.006,0,0,1,5,5v26a5.006,5.006,0,0,1-5,5Zm-26-34a3,3,0,0,0-3,3v26a3,3,0,0,0,3,3h26a3,3,0,0,0,3-3V287a3,3,0,0,0-3-3Z" transform="translate(728.655 3249.4)" fill="#f2f2f2"/>
    </g>
    <circle id="Ellipse_341" data-name="Ellipse 341" cx="6.467" cy="6.467" r="6.467" transform="translate(1174 3741.037)" fill="#f2f2f2"/>
    <circle id="Ellipse_344" data-name="Ellipse 344" cx="6.467" cy="6.467" r="6.467" transform="translate(733.066 3652.703)" fill="#f2f2f2"/>
    <circle id="Ellipse_346" data-name="Ellipse 346" cx="6.467" cy="6.467" r="6.467" transform="translate(828.066 3618.566)" fill="#f2f2f2"/>
    <circle id="Ellipse_342" data-name="Ellipse 342" cx="6.467" cy="6.467" r="6.467" transform="translate(939.066 3721.637)" fill="#f2f2f2"/>
    <circle id="Ellipse_345" data-name="Ellipse 345" cx="6.467" cy="6.467" r="6.467" transform="translate(575.033 3605.633)" fill="#f2f2f2"/>
    <circle id="Ellipse_343" data-name="Ellipse 343" cx="6.467" cy="6.467" r="6.467" transform="translate(1456.85 3728.104)" fill="#f2f2f2"/>
  </g>
</svg>
